<?xml version="1.0" encoding="UTF-8" standalone="no"?><!-- Generator: Gravit.io --><svg xmlns="http://www.w3.org/2000/svg" xmlns:xlink="http://www.w3.org/1999/xlink" style="isolation:isolate" viewBox="0 0 64 64" width="64pt" height="64pt"><defs><clipPath id="_clipPath_dI6wOSn69NnLtJP2fpspAETeLMGUELPt"><rect width="64" height="64"/></clipPath></defs><g clip-path="url(#_clipPath_dI6wOSn69NnLtJP2fpspAETeLMGUELPt)"><path d=" M 36 17 L 36 0 L 11 0 C 9.338 0 8 1.338 8 3 L 8 61 C 8 62.663 9.338 64 11 64 L 53 64 C 54.663 64 56 62.663 56 61 L 56 20 L 39 20 C 37.35 20 36 18.65 36 17 Z  M 45.556 43.42 L 33.504 55.383 C 32.673 56.209 31.33 56.209 30.499 55.383 L 18.446 43.42 C 17.178 42.161 18.068 40 19.853 40 L 28 40 L 28 30 C 28 28.895 28.895 28 30 28 L 34 28 C 35.105 28 36 28.895 36 30 L 36 40 L 44.148 40 C 45.933 40 46.823 42.161 45.556 43.42 Z  M 55.125 13.125 L 42.888 0.875 C 42.325 0.313 41.563 0 40.763 0 L 40 0 L 40 16 L 56 16 L 56 15.238 C 56 14.45 55.688 13.688 55.125 13.125 Z " fill="rgb(17,64,72)"/></g></svg>